HIERARCHY
ROOT Hips
{
	OFFSET	0.00	0.00	0.00
	CHANNELS 6 Xposition Yposition Zposition Zrotation Xrotation Yrotation
	JOINT LeftUpLeg
	{
		OFFSET	 0.126116	-0.014019	-0.065224
		CHANNELS 3 Zrotation Xrotation Yrotation
		JOINT LeftLeg
		{
			OFFSET	 0.000000	 0.000000	 0.569914
			CHANNELS 3 Zrotation Xrotation Yrotation
			JOINT LeftFoot
			{
				OFFSET	 0.000000	 0.000000	 0.544423
				CHANNELS 3 Zrotation Xrotation Yrotation
				JOINT LeftToeBase
				{
					OFFSET	 0.000000	 0.000000	 0.207117
					CHANNELS 3 Zrotation Xrotation Yrotation
					End Site
					{
						OFFSET	 0.000000	 0.000000	 0.207117
					}
				}
			}
		}
	}
	JOINT RightUpLeg
	{
		OFFSET	-0.124023	-0.008373	-0.065224
		CHANNELS 3 Zrotation Xrotation Yrotation
		JOINT RightLeg
		{
			OFFSET	 0.000000	 0.000000	 0.570047
			CHANNELS 3 Zrotation Xrotation Yrotation
			JOINT RightFoot
			{
				OFFSET	 0.000000	 0.000000	 0.544354
				CHANNELS 3 Zrotation Xrotation Yrotation
				JOINT RightToeBase
				{
					OFFSET	 0.000000	 0.000000	 0.207540
					CHANNELS 3 Zrotation Xrotation Yrotation
					End Site
					{
						OFFSET	 0.000000	 0.000000	 0.207540
					}
				}
			}
		}
	}
	JOINT Spine
	{
		OFFSET	 0.000184	-0.007763	 0.117403
		CHANNELS 3 Zrotation Xrotation Yrotation
		JOINT Spine1
		{
			OFFSET	 0.000000	 0.000000	 0.137269
			CHANNELS 3 Zrotation Xrotation Yrotation
			JOINT Spine2
			{
				OFFSET	 0.000000	 0.000000	 0.156879
				CHANNELS 3 Zrotation Xrotation Yrotation
				JOINT LeftShoulder
				{
					OFFSET	 0.080501	-0.002496	 0.160144
					CHANNELS 3 Zrotation Xrotation Yrotation
					JOINT LeftArm
					{
						OFFSET	 0.000000	 0.000000	 0.164363
						CHANNELS 3 Zrotation Xrotation Yrotation
						JOINT LeftForeArm
						{
							OFFSET	 0.000000	 0.000000	 0.364576
							CHANNELS 3 Zrotation Xrotation Yrotation
							JOINT LeftHand
							{
								OFFSET	 0.000000	 0.000000	 0.360812
								CHANNELS 3 Zrotation Xrotation Yrotation
								JOINT LeftHandIndex1
								{
									OFFSET	 0.000000	 0.000000	 0.086006
									CHANNELS 3 Zrotation Xrotation Yrotation
									JOINT LeftHandIndex2
									{
										OFFSET	 0.000000	 0.000000	 0.047237
										CHANNELS 3 Zrotation Xrotation Yrotation
										JOINT LeftHandIndex3
										{
											OFFSET	-0.004284	-0.000551	 0.038165
											CHANNELS 3 Zrotation Xrotation Yrotation
											End Site
											{
												OFFSET	-0.004284	-0.000551	 0.038165
											}
										}
									}
								}
							}
						}
					}
				}
				JOINT Neck
				{
					OFFSET	 0.000000	 0.000000	 0.176489
					CHANNELS 3 Zrotation Xrotation Yrotation
					JOINT Head
					{
						OFFSET	 0.000000	-0.001747	 0.077940
						CHANNELS 3 Zrotation Xrotation Yrotation
						End Site
						{
							OFFSET	 0.000000	-0.001747	 0.077940
						}
					}
				}
				JOINT RightShoulder
				{
					OFFSET	-0.080363	 0.000306	 0.159706
					CHANNELS 3 Zrotation Xrotation Yrotation
					JOINT RightArm
					{
						OFFSET	 0.000000	 0.000000	 0.164196
						CHANNELS 3 Zrotation Xrotation Yrotation
						JOINT RightForeArm
						{
							OFFSET	 0.000000	 0.000000	 0.365611
							CHANNELS 3 Zrotation Xrotation Yrotation
							JOINT RightHand
							{
								OFFSET	 0.000000	 0.000000	 0.360648
								CHANNELS 3 Zrotation Xrotation Yrotation
								JOINT RightHandIndex1
								{
									OFFSET	 0.000000	 0.000000	 0.069977
									CHANNELS 3 Zrotation Xrotation Yrotation
									JOINT RightHandIndex2
									{
										OFFSET	 0.000000	 0.000000	 0.052305
										CHANNELS 3 Zrotation Xrotation Yrotation
										JOINT RightHandIndex3
										{
											OFFSET	 0.009002	-0.000782	 0.042196
											CHANNELS 3 Zrotation Xrotation Yrotation
											End Site
											{
												OFFSET	 0.009002	-0.000782	 0.042196
											}
										}
									}
								}
							}
						}
					}
				}
			}
		}
	}
}
MOTION
Frames:    9
Frame Time: 0.03333334
-0.407969	 0.210289	 1.227767	-175.733100	 12.516310	 12.641870	 5.769486	-7.534718	-177.019800	-7.635381	-34.964680	-4.718967	 107.260700	 58.650700	-123.196700	-2.385833	 28.452760	 0.000004	 15.418020	-51.368940	 166.033600	 5.471694	-47.484970	 2.912946	-9.374770	 70.679230	 26.387250	 2.384659	 28.388700	-0.000001	 50.273280	-22.875090	 20.195960	 50.719970	 19.658280	 6.789019	-19.894800	-5.540196	-23.042850	-91.776150	 78.527350	 180.000000	 4.370681	 49.502240	-0.301110	 1.343518	 6.609136	-113.584700	 1.525023	-37.516430	-2.423308	-4.130319	 21.525730	 0.991547	-5.167930	 0.731704	 3.519349	-1.378229	 35.397820	-2.634230	-18.160800	 7.361815	 7.623767	-26.657330	-21.690570	-16.662800	 89.782110	 78.203830	 180.000000	 89.305000	 2.025420	-6.370872	-8.795911	-0.889868	 54.567180	-84.801090	 5.132731	-91.963580	 5.716227	 19.173190	-3.685159	 5.027444	 0.246877	-9.377972	-2.350882	 35.473990	 5.254307
-0.410151	 0.215020	 1.228882	-175.176700	 12.276340	 12.192120	 6.297009	-6.293397	-176.769600	-7.566400	-33.774170	-4.539471	 107.192100	 58.639690	-122.822000	-2.385833	 28.452760	 0.000004	 15.639500	-50.518150	 166.491700	 5.743289	-47.575390	 3.118096	-9.969822	 71.200330	 26.732570	 2.384659	 28.388700	-0.000001	 48.823960	-22.106700	 19.751320	 49.485200	 19.272580	 7.639810	-19.519910	-5.343973	-22.816250	-91.776110	 78.527350	 179.999900	 2.865392	 48.627640	 2.865859	 1.425632	 6.558884	-114.253900	 1.823108	-37.884210	-2.338932	-4.130319	 21.525730	 0.991547	-5.167930	 0.731704	 3.519349	-1.378229	 35.397820	-2.634230	-17.779340	 7.769520	 7.566644	-26.559810	-22.242470	-16.776360	 89.782130	 78.203850	 180.000000	 89.503250	-1.776002	-6.321146	-8.164824	-0.324539	 57.696520	-87.663590	 7.800192	-87.332780	 5.716227	 19.173190	-3.685159	 5.027444	 0.246877	-9.377972	-2.350882	 35.473990	 5.254307
-0.411823	 0.218816	 1.229932	-174.744000	 12.085040	 11.475160	 6.517781	-5.012733	-176.177600	-7.615230	-32.230820	-4.382166	 106.388500	 58.371700	-121.618200	-2.385833	 28.452760	 0.000004	 16.594020	-49.993060	 167.587900	 5.771246	-47.981750	 3.159002	-9.719419	 71.940590	 26.437010	 2.384659	 28.388700	-0.000001	 47.890280	-21.238570	 19.839650	 48.462240	 18.966510	 8.179747	-19.246560	-5.157417	-22.586640	-91.776210	 78.527350	-180.000000	 1.659231	 47.887040	 5.304913	 1.495980	 6.531462	-114.795100	 2.016301	-38.333090	-2.273273	-4.130319	 21.525730	 0.991547	-5.167930	 0.731704	 3.519349	-1.378229	 35.397820	-2.634230	-17.612720	 7.764140	 7.952333	-26.392050	-22.042930	-17.394090	 89.782130	 78.203890	 180.000000	 89.028610	-4.832407	-6.275435	-7.767578	 0.110189	 59.817250	-89.079030	 9.822640	-84.364450	 5.716227	 19.173190	-3.685159	 5.027444	 0.246877	-9.377972	-2.350882	 35.473990	 5.254307
-0.413332	 0.222258	 1.230962	-174.310600	 11.869360	 10.673480	 6.641716	-3.657784	-175.498300	-7.684566	-30.461170	-4.201900	 105.242700	 58.067420	-120.037400	-2.385833	 28.452760	 0.000004	 17.728000	-49.531490	 168.867800	 5.757536	-48.458720	 3.172253	-9.115732	 72.691020	 25.811090	 2.384659	 28.388700	-0.000001	 47.035140	-20.334600	 20.091340	 47.455540	 18.609950	 8.696552	-18.968110	-4.946790	-22.355980	-91.776230	 78.527380	-180.000000	 0.467095	 47.296960	 7.561440	 1.560313	 6.508044	-115.282900	 2.204465	-38.822780	-2.204124	-4.130319	 21.525730	 0.991547	-5.167930	 0.731704	 3.519349	-1.378229	 35.397820	-2.634230	-17.473210	 7.688774	 8.439528	-26.200210	-21.707980	-18.140030	 89.782160	 78.203920	 179.999900	 87.529530	-7.656773	-5.861091	-7.396254	 0.599065	 60.416360	-89.844640	 10.968100	-82.349310	 5.716227	 19.173190	-3.685159	 5.027444	 0.246877	-9.377972	-2.350882	 35.473990	 5.254307
-0.414749	 0.225547	 1.231869	-173.742600	 11.460090	 10.165860	 6.952114	-2.273467	-175.238600	-7.771028	-28.962160	-4.056748	 105.388900	 57.761470	-119.678000	-2.385833	 28.452760	 0.000004	 18.471330	-48.863380	 169.635800	 5.774049	-48.681030	 3.195551	-8.760429	 73.289960	 25.290170	 2.384659	 28.388700	-0.000001	 45.806920	-19.531340	 19.862740	 46.425190	 18.168870	 9.450834	-18.656110	-4.837135	-22.166780	-91.776180	 78.527360	 180.000000	-0.920215	 47.070640	 10.074130	 1.667319	 6.590121	-115.835700	 2.352954	-39.525340	-2.187949	-4.130319	 21.525730	 0.991547	-5.167930	 0.731704	 3.519349	-1.378229	 35.397820	-2.634230	-17.201820	 7.675581	 8.393877	-25.926380	-21.881220	-17.748130	 89.782070	 78.203900	-180.000000	 85.431700	-10.175050	-5.643070	-7.260212	 0.794121	 60.727590	-90.175640	 11.246900	-80.701470	 5.716227	 19.173190	-3.685159	 5.027444	 0.246877	-9.377972	-2.350882	 35.473990	 5.254307
-0.415925	 0.228384	 1.232649	-173.161000	 11.005130	 9.774942	 7.282116	-0.966035	-175.131400	-7.862430	-27.623670	-3.928054	 105.854300	 57.493260	-119.645400	-2.385833	 28.452760	 0.000004	 19.057310	-48.192930	 170.205100	 5.797954	-48.823180	 3.220530	-8.419618	 73.793410	 24.755350	 2.384659	 28.388700	-0.000001	 44.559990	-18.794500	 19.524950	 45.477940	 17.706540	 10.216910	-18.345880	-4.759013	-21.987680	-91.776260	 78.527400	-179.999900	-2.324619	 47.022910	 12.445680	 1.780668	 6.696054	-116.365400	 2.488448	-40.257640	-2.189146	-4.130319	 21.525730	 0.991547	-5.167930	 0.731704	 3.519349	-1.378229	 35.397820	-2.634230	-16.904770	 7.677723	 8.206095	-25.635540	-22.177100	-17.058860	 89.782080	 78.203900	-180.000000	 82.988440	-12.293100	-5.845195	-7.196207	 0.895190	 61.192960	-90.342610	 11.281230	-79.589590	 5.716227	 19.173190	-3.685159	 5.027444	 0.246877	-9.377972	-2.350882	 35.473990	 5.254307
-0.416759	 0.230600	 1.233295	-172.689500	 10.693290	 9.562297	 7.626424	-0.051759	-175.174600	-7.966447	-26.664630	-3.849763	 106.131600	 57.236950	-119.586500	-2.385833	 28.452760	 0.000004	 19.617810	-47.721480	 170.619900	 5.705475	-48.834380	 3.151297	-7.460978	 74.106670	 23.552890	 2.384659	 28.388700	-0.000001	 43.502300	-18.398840	 19.200660	 44.769330	 17.280240	 10.881660	-18.013070	-4.466041	-21.895100	-91.776170	 78.527380	 180.000000	-3.649966	 47.088310	 14.323140	 1.893263	 6.841871	-116.783800	 2.594595	-40.972710	-2.222654	-4.130319	 21.525730	 0.991547	-5.167930	 0.731704	 3.519349	-1.378229	 35.397820	-2.634230	-16.651170	 7.676115	 8.209414	-25.429270	-22.257540	-16.890480	 89.782090	 78.203870	-180.000000	 81.282420	-13.710510	-6.078291	-7.202646	 0.900194	 61.538360	-90.526860	 11.439520	-78.818480	 5.716227	 19.173190	-3.685159	 5.027444	 0.246877	-9.377972	-2.350882	 35.473990	 5.254307
-0.417429	 0.232616	 1.233924	-172.167600	 10.374900	 9.379945	 8.010237	 0.780440	-175.291700	-8.102955	-25.846650	-3.800853	 106.549700	 56.954590	-119.679700	-2.385833	 28.452760	 0.000004	 20.212330	-47.232600	 171.006600	 5.576261	-48.769650	 3.050791	-6.230679	 74.376750	 22.049350	 2.384659	 28.388700	-0.000001	 42.365900	-18.011850	 18.791100	 44.081200	 16.844760	 11.570260	-17.643130	-4.133783	-21.782060	-91.776160	 78.527400	 180.000000	-5.160288	 47.267710	 16.178110	 2.012782	 7.017431	-117.159700	 2.715717	-41.781890	-2.270528	-4.130319	 21.525730	 0.991547	-5.167930	 0.731704	 3.519349	-1.378229	 35.397820	-2.634230	-16.369140	 7.674326	 8.244841	-25.208120	-22.314370	-16.784210	 89.782100	 78.203850	 180.000000	 79.260250	-15.038250	-6.418677	-7.219320	 0.891734	 61.726850	-90.728160	 11.486530	-78.332920	 5.716227	 19.173190	-3.685159	 5.027444	 0.246877	-9.377972	-2.350882	 35.473990	 5.254307
-0.417791	 0.234040	 1.234442	-171.792800	 10.180300	 9.249010	 8.231571	 1.296076	-175.369100	-8.267244	-25.303410	-3.798098	 106.556200	 56.767000	-119.474000	-2.385833	 28.452760	 0.000004	 20.775980	-46.895820	 171.341000	 5.396350	-48.652220	 2.909971	-4.841990	 74.519300	 20.437020	 2.384659	 28.388700	-0.000001	 41.523430	-17.783560	 18.500110	 43.579440	 16.482110	 12.097620	-17.301860	-3.711722	-21.711220	-91.776190	 78.527380	-180.000000	-6.386969	 47.427350	 17.439920	 2.118577	 7.208484	-117.396600	 2.776277	-42.432610	-2.350953	-4.130319	 21.525730	 0.991547	-5.167930	 0.731704	 3.519349	-1.378229	 35.397820	-2.634230	-16.179050	 7.769255	 8.468648	-25.059850	-22.227260	-17.191300	 89.782070	 78.203850	-180.000000	 77.497270	-16.001530	-6.685009	-7.200857	 0.928771	 61.625980	-90.624440	 11.798120	-78.289320	 5.716227	 19.173190	-3.685159	 5.027444	 0.246877	-9.377972	-2.350882	 35.473990	 5.254307
